<?xml version="1.0" standalone="no"?>
<!DOCTYPE svg PUBLIC "-//W3C//DTD SVG 20010904//EN"
 "http://www.w3.org/TR/2001/REC-SVG-20010904/DTD/svg10.dtd">
<svg version="1.0" xmlns="http://www.w3.org/2000/svg"
 width="512.000000pt" height="512.000000pt" viewBox="0 0 512.000000 512.000000"
 preserveAspectRatio="xMidYMid meet">
<metadata>
Created by potrace 1.14, written by Peter Selinger 2001-2017
</metadata>
<g transform="translate(0.000000,512.000000) scale(0.100000,-0.100000)"
fill="#000000" stroke="none">
<path d="M915 5109 c-224 -29 -441 -136 -604 -300 -171 -171 -273 -383 -301
-627 -8 -68 -10 -572 -8 -1687 4 -1488 5 -1595 22 -1665 99 -412 409 -719 816
-807 80 -17 175 -18 1740 -18 l1655 0 96 27 c374 103 654 382 757 754 l27 99
0 1675 0 1675 -27 96 c-103 374 -382 654 -754 757 l-99 27 -1625 1 c-911 1
-1656 -2 -1695 -7z m1872 -714 c575 -76 1076 -433 1339 -956 302 -602 226
-1338 -194 -1864 -155 -194 -358 -363 -559 -464 -75 -37 -70 -53 -43 159 11
85 20 160 20 166 0 6 28 31 62 55 181 126 368 354 464 565 45 98 91 247 111
357 20 110 22 345 4 462 -75 486 -391 902 -839 1104 -108 48 -263 94 -377 112
-113 17 -351 15 -458 -4 -610 -111 -1072 -573 -1184 -1184 -25 -136 -22 -390
5 -519 43 -201 112 -366 218 -527 80 -119 224 -272 332 -352 l79 -58 22 -176
c12 -97 21 -179 21 -184 0 -11 -114 49 -205 107 -397 258 -671 668 -767 1146
-19 95 -23 148 -23 305 0 114 5 224 14 275 92 572 441 1049 961 1310 151 76
350 138 510 159 47 6 96 13 110 15 68 9 272 4 377 -9z m-64 -596 c374 -56 697
-290 866 -626 205 -409 147 -897 -149 -1252 l-53 -64 -18 85 c-9 47 -34 125
-54 173 l-38 87 42 86 c59 126 82 224 84 362 2 154 -19 243 -90 390 -52 105
-65 124 -157 216 -92 92 -111 105 -216 157 -145 70 -236 92 -390 91 -233 -1
-433 -87 -596 -256 -82 -84 -129 -154 -171 -253 -100 -236 -92 -488 25 -722
l36 -72 -32 -69 c-33 -71 -72 -207 -72 -250 0 -25 0 -25 -21 -6 -42 38 -133
168 -179 257 -294 562 -71 1258 496 1549 209 108 463 151 687 117z m-48 -604
c192 -50 335 -236 335 -435 0 -196 -144 -386 -328 -433 -50 -12 -60 -27 -20
-27 38 0 135 -42 200 -86 142 -97 228 -260 228 -432 0 -31 -23 -234 -50 -451
-55 -437 -61 -461 -139 -538 -72 -71 -119 -83 -341 -83 -222 0 -268 11 -340
83 -78 78 -84 98 -140 544 -27 221 -50 426 -50 455 0 66 22 156 55 223 66 135
224 260 355 281 58 9 57 19 -2 33 -140 32 -273 167 -312 317 -86 332 218 635
549 549z"/>
</g>
</svg>
